<?xml version="1.0" encoding="UTF-8" standalone="no"?>
<svg
   version="1.1"
   viewBox="-10 0 953.09485 1277.7648"
   id="svg1"
   sodipodi:docname="quest_card.svg"
   width="953.09485"
   height="1277.7648"
   inkscape:version="1.3.2 (091e20e, 2023-11-25, custom)"
   xml:space="preserve"
   xmlns:inkscape="http://www.inkscape.org/namespaces/inkscape"
   xmlns:sodipodi="http://sodipodi.sourceforge.net/DTD/sodipodi-0.dtd"
   xmlns="http://www.w3.org/2000/svg"
   xmlns:svg="http://www.w3.org/2000/svg"><defs
     id="defs1"><rect
       x="269.31021"
       y="210.28331"
       width="596.64355"
       height="870.12231"
       id="rect2" /></defs><sodipodi:namedview
     id="namedview1"
     pagecolor="#ffffff"
     bordercolor="#000000"
     borderopacity="0.25"
     inkscape:showpageshadow="2"
     inkscape:pageopacity="0.0"
     inkscape:pagecheckerboard="0"
     inkscape:deskcolor="#d1d1d1"
     inkscape:zoom="0.54212576"
     inkscape:cx="1102.1428"
     inkscape:cy="871.56899"
     inkscape:window-width="2560"
     inkscape:window-height="1377"
     inkscape:window-x="2552"
     inkscape:window-y="-8"
     inkscape:window-maximized="1"
     inkscape:current-layer="svg1" /><path
     id="rect1"
     style="display:inline;opacity:1;fill:#000000;stroke-width:1.10794"
     d="M 794.54253,0.03862215 107.03862,17.226122 C 40.558691,18.88812 -11.623376,73.746191 -9.9613778,140.22612 L 15.550342,1160.7262 c 1.661998,66.4799 56.520069,118.662 122.999998,117 l 687.50586,-17.1876 c 66.47993,-1.662 118.662,-56.5201 117,-123 L 917.5427,117.03862 C 915.8807,50.558687 861.02263,-1.6233803 794.5427,0.0386179 Z M 458.37065,282.41948 c 29.09085,-0.72727 51.69777,7.37512 67.82031,24.30665 16.44941,16.92335 25.07419,41.40096 25.875,73.43358 0.62104,24.84163 -8.15096,79.51679 -26.3164,164.02735 -17.83858,84.50239 -30.25157,157.09513 -37.23828,217.77734 l -37.26172,0.93164 C 440.91251,702.64693 424.56051,630.77419 402.19487,547.27691 380.1561,463.77145 368.82763,409.59704 368.20659,384.75542 c -0.79264,-31.70576 6.60233,-56.42035 22.18555,-74.14453 15.9019,-18.05921 38.5608,-27.45596 67.97851,-28.19141 z m 13.53313,541.28516 c 23.86105,-0.59652 44.17172,7.23658 60.93164,23.49805 17.0868,16.25329 25.93242,36.4742 26.53712,60.6621 0.58836,23.53418 -7.24476,43.84485 -23.49805,60.93164 -16.25328,17.0868 -36.14747,25.92335 -59.68164,26.5117 -23.20731,0.58018 -43.68491,-7.41077 -61.4336,-23.97459 -17.42182,-16.57197 -26.41822,-36.29924 -26.99023,-59.17968 -0.59652,-23.86104 7.39446,-44.33863 23.97461,-61.43359 16.57198,-17.42183 36.62599,-26.42727 60.16015,-27.01563 z" /></svg>
