<?xml version="1.0" encoding="UTF-8" standalone="no"?>
<svg
   version="1.1"
   viewBox="-10 0 1285.7264 1289.3691"
   id="svg1"
   sodipodi:docname="quest_charge.svg"
   width="1285.7264"
   height="1289.3691"
   inkscape:version="1.3.2 (091e20e, 2023-11-25, custom)"
   xml:space="preserve"
   xmlns:inkscape="http://www.inkscape.org/namespaces/inkscape"
   xmlns:sodipodi="http://sodipodi.sourceforge.net/DTD/sodipodi-0.dtd"
   xmlns="http://www.w3.org/2000/svg"
   xmlns:svg="http://www.w3.org/2000/svg"><defs
     id="defs1"><rect
       x="269.31021"
       y="210.28331"
       width="596.64355"
       height="870.12231"
       id="rect2" /></defs><sodipodi:namedview
     id="namedview1"
     pagecolor="#ffffff"
     bordercolor="#000000"
     borderopacity="0.25"
     inkscape:showpageshadow="2"
     inkscape:pageopacity="0.0"
     inkscape:pagecheckerboard="0"
     inkscape:deskcolor="#d1d1d1"
     inkscape:zoom="0.0479176"
     inkscape:cx="-8295.4906"
     inkscape:cy="-2118.2196"
     inkscape:window-width="2560"
     inkscape:window-height="1377"
     inkscape:window-x="2552"
     inkscape:window-y="-8"
     inkscape:window-maximized="1"
     inkscape:current-layer="svg1" /><path
     id="path2"
     style="display:inline;opacity:1;fill:#000000"
     d="M 182.97266 0 C 540.07726 206.17443 -62.918626 913.28252 182.07617 1277.6035 C 205.86555 1277.6035 229.3623 1277.2129 262.50391 1277.2129 C 307.23716 1264.5437 342.07123 1218.0701 357.57422 1168.082 L 274.60547 1167.8945 C 251.49037 1167.8425 219.29612 1126.4236 222.58203 1060.168 C 225.72966 996.7015 266.91256 953.54688 275.75195 953.55078 L 1015.252 953.87695 C 966.4109 687.02435 1301.881 240.68108 1016.5371 0 L 182.97266 0 z M 48.921875 1.9648438 C -28.929247 57.112715 -19.809107 217.54524 19.869141 287.71094 L 19.869141 178.79883 L 201.95508 178.79883 C 177.68536 26.344146 56.66967 2.1542584 48.921875 1.9648438 z M 76.382812 238.07812 L 74.998047 308.40234 C 124.23189 308.63379 157.02446 310.63493 195.53711 310.64648 C 195.53711 310.64648 214.71049 267.62844 206.91602 238.53906 L 76.382812 238.07812 z M 641.66016 301.99609 C 663.08607 301.99609 679.57726 308.37551 691.13281 321.13477 C 702.9291 333.89402 708.82617 352.06953 708.82617 375.66211 C 708.82617 393.9584 701.36342 434.04176 686.4375 495.91211 C 671.75232 557.78246 661.28074 610.98642 655.02148 655.52344 L 627.57617 655.52344 C 621.07617 610.98642 610.36342 557.78246 595.4375 495.91211 C 580.75232 434.04176 573.41016 393.9584 573.41016 375.66211 C 573.41016 352.31027 579.30918 334.25535 591.10547 321.49609 C 603.1425 308.4961 619.9935 301.99609 641.66016 301.99609 z M 641.66016 700.66211 C 659.23422 700.66211 674.03914 706.80035 686.07617 719.07812 C 698.35395 731.3559 704.49414 746.40394 704.49414 764.21875 C 704.49414 781.55208 698.35395 796.35699 686.07617 808.63477 C 673.7984 820.91254 658.99348 827.05078 641.66016 827.05078 C 624.56757 827.05078 609.64207 820.79195 596.88281 808.27344 C 584.3643 795.75492 578.10547 781.0706 578.10547 764.21875 C 578.10547 746.64468 584.3643 731.71723 596.88281 719.43945 C 609.40133 706.92094 624.32683 700.66211 641.66016 700.66211 z M 1270.5078 1013.9746 L 368.56055 1014.4355 C 381.30615 1028.136 417.90362 1058.768 408.70703 1140.7344 C 400.50317 1201.3428 366.89511 1261.6502 314.69922 1289.8301 L 1169.6367 1289.3691 C 1295.1421 1224.7511 1277.1188 1059.6619 1270.5078 1013.9746 z M 297.625 1014.3828 C 278.66622 1021.2947 267.5849 1033.4982 266.17969 1061.832 C 264.61787 1093.3237 275.30586 1116.7051 298.77344 1132.2129 L 362.33398 1132.082 C 374.96259 1045.4521 330.48742 1014.3828 297.625 1014.3828 z " /></svg>
